<?xml version="1.0" encoding="UTF-8" standalone="no"?>
<!-- Created with Inkscape (http://www.inkscape.org/) -->

<svg
   xmlns:dc="http://purl.org/dc/elements/1.1/"
   xmlns:cc="http://creativecommons.org/ns#"
   xmlns:rdf="http://www.w3.org/1999/02/22-rdf-syntax-ns#"
   xmlns:svg="http://www.w3.org/2000/svg"
   xmlns="http://www.w3.org/2000/svg"
   xmlns:sodipodi="http://sodipodi.sourceforge.net/DTD/sodipodi-0.dtd"
   xmlns:inkscape="http://www.inkscape.org/namespaces/inkscape"
   version="1.0"
   width="1438.6947"
   height="656.80536"
   id="svg2836"
   inkscape:version="0.91 r13725"
   sodipodi:docname="CSX_transp_logo2.svg">
  <metadata
     id="metadata3357">
    <rdf:RDF>
      <cc:Work
         rdf:about="">
        <dc:format>image/svg+xml</dc:format>
        <dc:type
           rdf:resource="http://purl.org/dc/dcmitype/StillImage" />
        <dc:title></dc:title>
      </cc:Work>
    </rdf:RDF>
  </metadata>
  <sodipodi:namedview
     pagecolor="#ffffff"
     bordercolor="#666666"
     borderopacity="1"
     objecttolerance="10"
     gridtolerance="10"
     guidetolerance="10"
     inkscape:pageopacity="0"
     inkscape:pageshadow="2"
     inkscape:window-width="1600"
     inkscape:window-height="838"
     id="namedview3355"
     showgrid="false"
     fit-margin-top="0"
     fit-margin-left="0"
     fit-margin-right="0"
     fit-margin-bottom="0"
     inkscape:zoom="0.42644994"
     inkscape:cx="52.944338"
     inkscape:cy="34.115965"
     inkscape:window-x="-8"
     inkscape:window-y="-8"
     inkscape:window-maximized="1"
     inkscape:current-layer="svg2836" />
  <defs
     id="defs2838" />
  <g
     transform="matrix(13.586851,0,0,13.586851,-4288.3778,-6400.0685)"
     id="layer1">
    <g
       transform="matrix(1.25,0,0,-1.25,329.46081,519.38995)"
       id="g2782">
      <path
         d="M 0,0 C 1.705,0 3.087,1.383 3.087,3.087 3.087,4.792 1.705,6.174 0,6.174 -1.705,6.174 -3.088,4.792 -3.088,3.087 -3.088,1.383 -1.705,0 0,0"
         id="path2784"
         style="fill:#104f8c;fill-opacity:1;fill-rule:nonzero;stroke:none"
         inkscape:connector-curvature="0" />
    </g>
    <g
       transform="matrix(1.25,0,0,-1.25,340.56331,519.38995)"
       id="g2786">
      <path
         d="M 0,0 C 1.705,0 3.088,1.383 3.088,3.087 3.088,4.792 1.705,6.174 0,6.174 -1.705,6.174 -3.087,4.792 -3.087,3.087 -3.087,1.383 -1.705,0 0,0"
         id="path2788"
         style="fill:#104f8c;fill-opacity:1;fill-rule:nonzero;stroke:none"
         inkscape:connector-curvature="0" />
    </g>
    <g
       transform="matrix(1.25,0,0,-1.25,397.2333,519.38995)"
       id="g2790">
      <path
         d="M 0,0 C 1.705,0 3.087,1.383 3.087,3.087 3.087,4.792 1.705,6.174 0,6.174 -1.705,6.174 -3.088,4.792 -3.088,3.087 -3.088,1.383 -1.705,0 0,0"
         id="path2792"
         style="fill:#104f8c;fill-opacity:1;fill-rule:nonzero;stroke:none"
         inkscape:connector-curvature="0" />
    </g>
    <g
       transform="matrix(1.25,0,0,-1.25,408.33456,519.38995)"
       id="g2794">
      <path
         d="M 0,0 C 1.705,0 3.088,1.383 3.088,3.087 3.088,4.792 1.705,6.174 0,6.174 -1.705,6.174 -3.086,4.792 -3.086,3.087 -3.086,1.383 -1.705,0 0,0"
         id="path2796"
         style="fill:#104f8c;fill-opacity:1;fill-rule:nonzero;stroke:none"
         inkscape:connector-curvature="0" />
    </g>
    <g
       transform="matrix(1.25,0,0,-1.25,324.40081,507.0537)"
       id="g2798">
      <path
         d="m 0,0 -3.839,0 0,25.624 3.715,0 0,3.179 -6.895,0 0,-31.981 7.019,0 L 0,0"
         id="path2800"
         style="fill:#104f8c;fill-opacity:1;fill-rule:nonzero;stroke:none"
         inkscape:connector-curvature="0" />
    </g>
    <g
       transform="matrix(1.25,0,0,-1.25,412.74206,475.02245)"
       id="g2802">
      <path
         d="m 0,0 3.839,0 0,-25.624 -3.717,0 0,-3.179 6.897,0 0,31.982 L 0,3.179 0,0"
         id="path2804"
         style="fill:#104f8c;fill-opacity:1;fill-rule:nonzero;stroke:none"
         inkscape:connector-curvature="0" />
    </g>
    <g
       transform="matrix(1.25,0,0,-1.25,389.88456,498.1062)"
       id="g2806">
      <path
         d="M 0,0 C 0.076,0.038 0,0.122 -0.018,0.16 L -1.975,2.532 -2.031,2.559 -4.15,0.086 C -4.168,0.057 -4.14,0.038 -4.12,0.019 l 1.746,0 0,-3.837 -8.836,0 0,3.187 -0.07,0 c -0.952,-2.144 -3.19,-3.715 -5.552,-3.631 -1.138,0 -2.127,0.444 -3.06,0.97 l -0.045,-0.085 0,-0.424 -0.077,-0.028 -4.045,0.019 -0.019,0.103 -0.018,5.758 -0.02,0.02 c -0.302,-0.641 -0.545,-1.327 -0.94,-1.939 -1.958,-3.341 -5.609,-4.667 -9.325,-4.263 -3.125,0.264 -6.098,2.551 -7.368,5.438 -1.383,3.114 -1.129,7.395 1.035,10.076 2.324,3.048 6.079,4.3 9.758,3.538 0.96,-0.217 1.881,-0.602 2.738,-1.081 l 0,0.065 c 0.019,0.283 -0.066,0.555 0,0.819 l 3.574,0 0,-6.107 -4.534,0.03 c -1.167,1.58 -3.002,2.219 -4.912,1.806 -1.825,-0.339 -3.491,-2.089 -3.792,-3.914 -0.385,-2.08 0.462,-4.093 2.192,-5.287 1.365,-1.035 3.567,-1.074 4.987,-0.142 0.735,0.443 1.403,1.205 1.835,1.919 l 0.104,0.028 5.909,0.011 0.094,-0.011 3.454,-0.028 0.038,-0.027 c 0.15,-1.017 0.112,-2.108 0.808,-2.898 0.377,-0.349 0.922,-0.452 1.459,-0.349 0.584,0.085 1.185,0.593 1.355,1.177 0.17,0.61 0,1.27 -0.433,1.703 -0.347,0.347 -0.781,0.517 -1.204,0.706 -2.315,0.808 -5.157,1.787 -6.05,4.468 -0.697,2.324 0.122,4.76 2.042,6.209 1.561,1.186 4.12,1.543 5.88,0.517 l 0.518,-0.338 c 0.084,0.009 0.047,0.113 0.057,0.178 l 0.027,0.499 c 1.12,-0.009 2.362,0.038 3.463,0 l -0.009,-6.284 -0.019,-0.038 -3.887,0.019 c -0.225,0.922 -0.16,2.088 -1.156,2.578 -0.556,0.207 -1.318,0.226 -1.761,-0.226 -0.423,-0.367 -0.592,-0.893 -0.498,-1.459 0.085,-0.762 0.828,-1.241 1.497,-1.439 1.448,-0.545 2.944,-0.941 4.204,-1.938 1.883,-1.336 2.608,-3.594 2.006,-5.813 -0.029,-0.057 -0.049,-0.123 -0.038,-0.188 l 0.093,-0.067 1.328,0 2.672,3.067 2.287,2.644 -0.359,0.47 -4.055,4.835 -1.18,0.01 0,3.757 7.932,0 0,-3.785 c -0.443,-0.047 -0.871,0.038 -1.295,-0.038 l 0.038,-0.113 c 0.556,-0.658 1.073,-1.326 1.629,-1.957 l 0.15,0.113 c 0.545,0.641 1.166,1.271 1.684,1.938 -0.48,0.067 -0.969,0 -1.449,0.057 l 0.01,3.785 8.723,0 L 7.171,10.989 7.143,10.96 5.317,10.942 0.725,5.664 0.734,5.569 5.336,0 l 1.783,0 0,-3.818 -8.662,0 L -1.551,0 0,0"
         id="path2808"
         style="fill:#104f8c;fill-opacity:1;fill-rule:nonzero;stroke:none"
         inkscape:connector-curvature="0" />
    </g>
    <g
       transform="matrix(1.25,0,0,-1.25,416.08705,515.07745)"
       id="g2810">
      <path
         d="m 0,0 -0.341,0 0,2.222 0.547,0 0.562,-1.775 0.541,1.775 0.537,0 0,-2.222 -0.341,0 0,1.865 L 0.933,0 0.6,0 0,1.895 0,0 Z m -1.317,0 -0.371,0 0,1.895 -0.72,0 0,0.327 1.816,0 0,-0.327 -0.725,0 0,-1.895"
         id="path2812"
         style="fill:#104f8c;fill-opacity:1;fill-rule:nonzero;stroke:none"
         inkscape:connector-curvature="0" />
    </g>
  </g>
</svg>
