<?xml version="1.0" encoding="UTF-8" standalone="no"?>
<!-- Created with Inkscape (http://www.inkscape.org/) -->

<svg
   xmlns:dc="http://purl.org/dc/elements/1.1/"
   xmlns:cc="http://creativecommons.org/ns#"
   xmlns:rdf="http://www.w3.org/1999/02/22-rdf-syntax-ns#"
   xmlns:svg="http://www.w3.org/2000/svg"
   xmlns="http://www.w3.org/2000/svg"
   xmlns:sodipodi="http://sodipodi.sourceforge.net/DTD/sodipodi-0.dtd"
   xmlns:inkscape="http://www.inkscape.org/namespaces/inkscape"
   width="35.356121"
   height="32.680721"
   viewBox="0 0 9.3546407 8.6467741"
   version="1.1"
   id="svg19952"
   inkscape:version="0.92.0 r15299"
   sodipodi:docname="cumminsBLK.svg">
  <defs
     id="defs19946">
    <clipPath
       id="clipPath19878"
       clipPathUnits="userSpaceOnUse">
      <path
         inkscape:connector-curvature="0"
         id="path19876"
         d="m 324,84.24 h 25.767 V 108 H 324 Z" />
    </clipPath>
  </defs>
  <sodipodi:namedview
     id="base"
     pagecolor="#ffffff"
     bordercolor="#666666"
     borderopacity="1.0"
     inkscape:pageopacity="0.0"
     inkscape:pageshadow="2"
     inkscape:zoom="16.824114"
     inkscape:cx="17.178059"
     inkscape:cy="15.840359"
     inkscape:document-units="mm"
     inkscape:current-layer="layer1"
     showgrid="false"
     fit-margin-top="0"
     fit-margin-left="0"
     fit-margin-right="0"
     fit-margin-bottom="0"
     units="px"
     inkscape:window-width="1280"
     inkscape:window-height="744"
     inkscape:window-x="-4"
     inkscape:window-y="-4"
     inkscape:window-maximized="1" />
  <metadata
     id="metadata19949">
    <rdf:RDF>
      <cc:Work
         rdf:about="">
        <dc:format>image/svg+xml</dc:format>
        <dc:type
           rdf:resource="http://purl.org/dc/dcmitype/StillImage" />
        <dc:title></dc:title>
      </cc:Work>
    </rdf:RDF>
  </metadata>
  <g
     inkscape:label="Layer 1"
     inkscape:groupmode="layer"
     id="layer1"
     transform="translate(-23.283404,-324.252)">
    <path
       inkscape:connector-curvature="0"
       id="path19882"
       style="fill:#000000;fill-opacity:1;fill-rule:nonzero;stroke:none;stroke-width:0.35277778"
       d="m 26.649251,328.06625 -0.327378,-0.46778 c -0.0575,-0.0751 -0.135466,-0.14605 -0.229658,-0.0801 -0.149225,0.10442 -0.01588,0.2547 -0.0095,0.26423 l 0.319969,0.45649 -0.299861,0.2099 -0.414161,-0.59125 c -0.04974,-0.0713 -0.08431,-0.11748 -0.152047,-0.1972 l 0.296686,-0.20779 0.09737,0.12912 0.0032,-0.002 c -0.02081,-0.14852 0.05539,-0.26317 0.174272,-0.34678 0.09631,-0.0674 0.240594,-0.0928 0.341489,-0.0194 -0.0127,-0.13265 0.05962,-0.26353 0.176741,-0.35031 0.170392,-0.11924 0.374298,-0.0967 0.497064,0.079 l 0.372181,0.53128 -0.299861,0.20991 -0.326672,-0.46638 c -0.0575,-0.0751 -0.135114,-0.14569 -0.228953,-0.0801 -0.149578,0.10478 -0.01658,0.25436 -0.01058,0.26282 l 0.319617,0.4565 z m -0.934508,0.6544 -0.06632,-0.0847 c -0.01305,0.12735 -0.07055,0.21484 -0.172155,0.2861 -0.170392,0.11924 -0.374297,0.0967 -0.496711,-0.0776 l -0.372886,-0.5327 0.299861,-0.2099 0.327378,0.46743 c 0.0575,0.0755 0.135466,0.1464 0.229658,0.0804 0.149225,-0.10477 0.01623,-0.2547 0.0095,-0.26423 l -0.31997,-0.45649 0.299862,-0.2099 0.414161,0.59125 c 0.04974,0.0713 0.08431,0.11748 0.152047,0.1972 z m -1.039989,0.72637 c -0.312914,0.21802 -0.742245,0.14217 -0.959908,-0.17074 -0.218017,-0.31292 -0.140759,-0.74295 0.172155,-0.96097 l 0.408869,-0.2861 0.225778,0.3242 -0.364066,0.25294 c -0.134409,0.0938 -0.16757,0.2787 -0.07408,0.41311 0.09384,0.13476 0.278695,0.16792 0.413456,0.0741 l 0.364772,-0.25577 0.224719,0.3228 z m 2.66453,-3.0487 0.09737,0.12911 0.0032,-0.002 c -0.02081,-0.14816 0.05539,-0.26282 0.174625,-0.34642 0.09596,-0.0674 0.240594,-0.0928 0.341136,-0.0194 -0.0127,-0.13264 0.05962,-0.26352 0.176742,-0.3503 0.170391,-0.11924 0.374297,-0.0967 0.497064,0.079 l 0.37218,0.53128 -0.299861,0.2099 -0.326672,-0.46637 c -0.05715,-0.0755 -0.135114,-0.1457 -0.228953,-0.0801 -0.149578,0.10478 -0.01658,0.25435 -0.01058,0.26282 l 0.319616,0.45649 -0.299861,0.20991 -0.327377,-0.46779 c -0.0575,-0.0755 -0.135467,-0.14605 -0.229306,-0.0801 -0.149578,0.10443 -0.01623,0.25436 -0.0099,0.26388 l 0.31997,0.45685 -0.299861,0.2099 -0.414162,-0.59161 c -0.04974,-0.0709 -0.08431,-0.11712 -0.152047,-0.19685 z m 1.260123,-1.40053 0.148519,0.21202 -0.303036,0.21202 -0.14852,-0.21202 z m 0.798688,1.1437 -0.299861,0.20991 -0.556683,-0.79481 0.299861,-0.2099 z m -0.164747,-1.06926 0.06632,0.0847 c 0.01305,-0.12735 0.0702,-0.21484 0.172156,-0.2861 0.170392,-0.11924 0.374297,-0.0967 0.496358,0.0776 l 0.372886,0.53269 -0.299508,0.20991 -0.327731,-0.46779 c -0.0575,-0.0751 -0.135466,-0.14605 -0.229305,-0.0801 -0.149578,0.10478 -0.01623,0.25471 -0.0095,0.26423 l 0.319617,0.4565 -0.299862,0.2099 -0.413808,-0.59125 c -0.04974,-0.0713 -0.08467,-0.11748 -0.152047,-0.19721 z m -1.097139,2.39853 h 3.637845 v -3.0861 h -1.038931 l -0.242005,0.17075 c -0.01905,-0.0268 -0.04022,-0.0473 -0.06526,-0.0526 -0.02822,-0.006 -0.06138,3.5e-4 -0.102659,0.0293 -0.04445,0.0311 -0.05362,0.0751 -0.02152,0.12136 0.04092,0.0582 0.160867,-0.0303 0.390525,-0.10372 0.115711,-0.0363 0.221544,-0.0233 0.312561,0.10619 0.147108,0.21061 -0.01305,0.40287 -0.195086,0.53022 -0.194733,0.13653 -0.412397,0.23001 -0.58032,-0.0134 l 0.284692,-0.19932 c 0.01199,0.0272 0.03881,0.0483 0.07056,0.0568 0.0321,0.008 0.06844,0.007 0.09701,-0.0134 0.05856,-0.0413 0.08608,-0.0931 0.05045,-0.14393 -0.09843,-0.14076 -0.510117,0.27234 -0.711906,-0.0159 -0.123472,-0.17604 0.0028,-0.35772 0.144639,-0.47272 l -2.422878,3.5e-4 c 0,0 -1.94063,-0.0568 -3.175,1.3074 0,0 -1.15323,1.0234 -1.15323,2.89136 0,0.0903 0.0028,0.17569 0.0081,0.26247 7.05e-4,0.0289 0.01905,0.22048 0.0321,0.32208 0.20708,1.50107 1.145469,2.34704 1.145469,2.34704 1.307394,1.30739 3.118203,1.25059 3.118203,1.25059 h 4.054475 v -3.0861 h -3.654061 c 0,0 -1.218142,-0.008 -1.218142,-1.10419 0,-1.08021 1.234369,-1.10455 1.234369,-1.10455" />
    <path
       inkscape:connector-curvature="0"
       id="path19886"
       style="fill:#231f20;fill-opacity:1;fill-rule:nonzero;stroke:none;stroke-width:0.35277778"
       d="m 32.205536,332.50335 v -0.0878 h 0.05856 c 0.02963,0 0.06174,0.007 0.06174,0.0416 0,0.0437 -0.03246,0.0462 -0.06879,0.0462 z m 0,0.0363 h 0.04939 l 0.07479,0.12276 h 0.04798 l -0.08043,-0.12453 c 0.04127,-0.005 0.07338,-0.0275 0.07338,-0.078 0,-0.0561 -0.03316,-0.0808 -0.100189,-0.0808 h -0.10795 v 0.28328 h 0.04304 z m 0.05186,0.22683 c 0.134056,0 0.248356,-0.10407 0.248356,-0.24624 0,-0.14111 -0.1143,-0.24482 -0.248356,-0.24482 -0.135114,0 -0.249414,0.10371 -0.249414,0.24482 0,0.14217 0.1143,0.24624 0.249414,0.24624 m -0.200025,-0.24624 c 0,-0.11641 0.08784,-0.2039 0.200025,-0.2039 0.111125,0 0.198967,0.0875 0.198967,0.2039 0,0.11818 -0.08784,0.20532 -0.198967,0.20532 -0.112183,0 -0.200025,-0.0871 -0.200025,-0.20532" />
  </g>
</svg>
