<?xml version="1.0" encoding="utf-8"?>
<!-- Generator: Adobe Illustrator 21.0.0, SVG Export Plug-In . SVG Version: 6.00 Build 0)  -->
<svg version="1.1" id="Layer_1" xmlns="http://www.w3.org/2000/svg" xmlns:xlink="http://www.w3.org/1999/xlink" x="0px" y="0px"
	 width="344px" height="84.1px" viewBox="0 0 344 84.1" style="enable-background:new 0 0 344 84.1;" xml:space="preserve">
<style type="text/css">
	.st0{fill:#F0C640;}
	.st1{fill:#272526;}
</style>
<g>
	<g>
		<path class="st0" d="M46.7,0.8C47,0.4,47.4,0.2,47.8,0c0.4,0,0.7,0,1.1,0c0.5,0.2,0.9,0.6,1,1.1c0.3,1.2,0.2,2.5,0.3,3.7
			c0.1,8.8,0.3,17.5,0.5,26.3c2.6,0.8,5.3,1.6,8,2.4c0.6,0.2,1.3,0.4,1.9,0.6c-3.4,1.7-6.6,3.8-9.1,6.7c-1.3,1.4-2.4,3.1-3.1,4.9
			c-0.7,1.7-1.1,3.6-1.3,5.4c-0.2,2.1,0,4.4,0.7,6.4c0.7,1.8,1.9,3.5,3.4,4.7c0.1,1.2,0,2.5,0.1,3.7c0.1,5.4,0.2,10.9,0.3,16.3
			c-0.1,0.7-0.4,1.4-1,1.7c-0.5,0.2-1,0.2-1.5,0.1c-0.5-0.2-0.7-0.6-1-0.9c-2.5-3-4.7-6.2-7.1-9.3c-2.9-3.8-5.8-7.7-8.6-11.5
			c-0.5-0.7-1-1.4-1.6-2.1c-1.2,0.4-2.3,0.8-3.5,1.2c-8,2.8-16.1,5.6-24.1,8.4c-1,0.4-2.3-0.4-2.2-1.5c0-0.9,0.5-1.8,1-2.5
			c5.2-7.6,10.5-15.2,15.7-22.8c0.2-0.3-0.2-0.5-0.3-0.7c-5.6-7.5-11.1-15-16.7-22.5c-0.3-0.3-0.4-0.7-0.5-1.1
			c-0.3-1,0.6-2.2,1.7-2.1c0.5,0,1,0.1,1.5,0.3c8.1,2.4,16.1,4.9,24.2,7.3c0.9,0.3,1.7,0.5,2.6,0.8C35.6,16.9,41.2,8.8,46.7,0.8z
			 M29.4,32.2c-0.7,0.1-1.3,0.5-1.9,0.7c-0.4,0.2-0.7,0.5-0.7,1c0.1,0.6,0.5,1.1,1.1,1.3c0.8,0.3,1.6,0,2.3-0.2
			c0.8-0.1,1.3,0.8,2,0.9c0.5,0.1,1.1,0.2,1.5-0.1c0.5-0.4,0.9-1.2,0.4-1.8c-0.4-0.5-0.9-0.8-1.4-1.1C31.8,32.3,30.5,32,29.4,32.2z
			 M41.9,36.3c-0.8,0-1.1,0.9-1,1.6c0.1,0.6,0.7,0.9,1.2,1.2c0.6,0.2,1.2,0,1.8,0.2c0.3,0.1,0.5,0.4,0.7,0.6c0.4,0.5,0.9,0.9,1.5,1
			c0.6,0.1,1.1-0.1,1.5-0.5c0.2-0.4,0.2-0.8,0-1.2c-0.3-0.4-0.5-0.9-0.8-1.3c-0.6-0.8-1.5-1.3-2.5-1.6
			C43.6,36.2,42.7,36.2,41.9,36.3z M33.5,39.9c-0.3,0.1-0.7,0.2-0.8,0.6c-0.1,0.4,0.3,0.7,0.5,1c1.2,1.2,2.8,1.8,4.4,1.9
			c0.4,0,0.9-0.1,1.2-0.5c0.2-0.3,0.1-0.7-0.1-1c-0.7-1.1-2-1.7-3.2-2C34.8,39.9,34.1,39.7,33.5,39.9z M26.7,39.9
			c-0.4,0.1-0.8,0.5-1.2,0.7c-0.6,0.3-1.3,0.4-1.9,0.8c-0.1,0.3-0.3,0.7-0.1,0.9c0.5,0.4,1.3,0.1,1.7,0.7c0.9,3.1,3,6,5.9,7.7
			c2.1,1.3,4.7,1.6,7,0.9c1.8-0.5,3.4-1.5,5-2.4c0.4-0.2,0.7-0.5,1.2-0.6c0.4,0,0.6,0.4,1,0.3c0.5,0,0.9-0.5,0.7-1
			c-0.2-0.3-0.5-0.5-0.7-0.8c-0.2-0.3-0.4-0.7-0.5-1.1c-0.1-0.3-0.2-0.6-0.5-0.8c-0.4-0.4-1,0.1-1,0.5c0,0.5,0.2,1.2-0.3,1.5
			c-2.7,1.6-6.1,2.3-9.1,1.4c-3-0.9-5.6-3.2-7-6.1c-0.1-0.2-0.3-0.5-0.2-0.7c0.1-0.6,0.7-0.8,0.8-1.4C27.2,40.4,27.1,39.8,26.7,39.9
			z"/>
	</g>
	<path class="st0" d="M62.9,41.2c1.8-1.8,4-3.3,6.3-4.4c0.5,0.1,0.9,0.2,1.4,0.4c2.4,0.7,4.9,1.5,7.3,2.2c0.6,0.1,1.2,0.5,1.5,1
		c0.4,0.5,0.3,1.2,0.1,1.7c-0.4,0.7-1.1,1.2-1.8,1.4c-6.6,2.4-13.2,4.7-19.8,7.1C58.4,47,60.3,43.7,62.9,41.2z"/>
</g>
<g>
	<g>
		<path class="st1" d="M97.6,3.4c4,0,7.9,0,11.9,0c-3.1,8.2-6.1,16.5-9.2,24.7c4.9,0,9.9,0,14.8,0c0.1,0,0.3,0.1,0.4-0.1
			c3.2-8.2,6.3-16.4,9.5-24.6c4.1,0,8.1,0,12.2,0c-7.5,19.8-15,39.6-22.5,59.4c-4.1,0-8.1,0-12.2,0c3.6-9.8,7.3-19.5,11-29.3
			c-5.1,0-10.1,0-15.2,0c-0.8,2.2-1.5,4.4-2.4,6.5c-1.6,4.2-3.5,8.4-6,12.2c-2.3,3.5-5.1,6.6-8.5,9c-3.2,2.3-7,3.8-10.9,4.4
			c-3.3,0.5-6.6,0.5-9.9,0.1c-3.3-0.5-6.7-1.4-9.3-3.6c-1.5-1.2-2.7-2.8-3.4-4.7c-0.8-2-0.9-4.2-0.7-6.4c0.2-1.9,0.6-3.7,1.3-5.4
			c0.8-1.8,1.8-3.4,3.1-4.9c2.5-2.8,5.7-5,9.1-6.7c4.2-2.1,8.6-3.5,13.2-4.5c4.6-1,9.4-1.6,14.1-1.6C90.9,19.8,94.3,11.6,97.6,3.4z
			 M69.1,36.8c-2.3,1.1-4.4,2.6-6.3,4.4c-2.6,2.5-4.5,5.8-5.1,9.4l0,0c-0.4,2.6,0.1,5.4,1.8,7.4c1.2,1.5,3.1,2.5,5,2.8
			c2.2,0.4,4.4-0.1,6.3-1.1c1.8-0.9,3.4-2.3,4.7-3.9c0.8-0.9,1.5-1.9,2.2-2.9c1.4-1.9,2.5-4.1,3.4-6.2c1.9-4.2,3.3-8.6,4.8-13
			c-0.9-0.1-1.8,0-2.7,0C78.4,33.8,73.5,34.7,69.1,36.8z"/>
	</g>
	<g>
		<path class="st1" d="M225.5,18.7c2-5.1,3.8-10.2,5.8-15.3c3.6,0,7.1,0,10.7,0c-5,13-10,26-15,39.1c-1.3,3.3-2.5,6.6-3.7,9.9
			c-0.1,0.2-0.2,0.6,0.2,0.6c0.5-0.1,1-0.2,1.4-0.5c2.1-1.4,4.2-2.9,6.2-4.4c0.5-0.4,1.1-0.8,1.6-1.3c0.5-4.3,1.6-8.5,3.5-12.4
			c1.8-3.8,4.3-7.2,7.5-10c2.9-2.5,6.3-4.4,10-5.4c2.3-0.6,4.7-1,7.1-0.7c1.8,0.2,3.5,1,4.6,2.4c1.3,1.6,1.7,3.8,1.5,5.8
			c-0.3,3.1-1.6,6.1-3.8,8.4c-4.7,5.1-11.7,8-18.6,7.5c-0.6,2.4-1.2,4.8-1.2,7.3c0,1.2,0.3,2.5,1.1,3.5c0.7,0.8,1.8,1.1,2.9,1
			c1.6-0.1,3.1-0.7,4.5-1.4c2.8-1.4,5.3-3.2,7.7-5.1c2.4-2,4.8-4.1,6.8-6.6c0.4-0.5,0.5-1.2,0.8-1.8c2-5.3,4.8-10.5,9-14.4
			c3-2.9,6.8-5,10.9-6c2.1-0.5,4.4-0.8,6.6-0.5c1.5,0.2,3.1,0.7,4.3,1.8c1,0.9,1.7,2.2,2,3.5c0.5,2.3,0,4.7-0.9,6.9
			c-0.9,2.2-2.2,4.2-3.9,5.8c-2.2,2.1-5,3.5-7.8,4.5c-2.8,0.9-5.6,1.5-8.6,1.6c-0.3,0-0.7,0-1-0.1c-0.5,1.7-1,3.4-1.2,5.1
			c-0.2,1.4-0.3,2.9,0.2,4.3c0.3,0.9,0.9,1.6,1.8,1.9c1.3,0.5,2.7,0.2,4-0.3c2.7-1,5.1-2.6,7.3-4.5c1.7-1.5,3.2-3.2,4.6-5
			c5.4-6.8,10.5-13.7,15.7-20.6c1.2-1.6,2.4-3.1,3.5-4.7c3.2,0,6.3,0,9.5,0c0.4,7.5,0.8,15,1.2,22.4c1.4,0.2,2.9,0.2,4.3,0
			c2.5-0.2,4.9-0.7,7.3-1.3c2.4-0.6,4.8-1.4,7-2.4c0.2-0.1,0.5-0.1,0.7,0c0.4,0.2,0.5,0.6,0.6,1c0,0.8-0.5,1.5-1,2.1
			c-1.4,1.9-3.4,3.3-5.6,4.2c-3.7,1.5-7.7,1.8-11.6,1.8c-1,0.1-2.1,0-3.1,0c-1.4,3.6-3.7,6.9-7,9.1c-3.9,2.7-8.8,3.7-13.5,3
			c-2.1-0.3-4.1-0.9-5.9-2.1c-1-0.7-2-1.6-2.5-2.8c-0.3-0.7-0.4-1.4-0.3-2.1c-1.6,1.5-3.3,2.9-5.2,4.1c-2.7,1.6-5.8,2.7-8.9,3.1
			c-2.9,0.3-5.9,0.1-8.6-1c-1.5-0.6-2.9-1.6-3.8-3c-1.3-1.9-1.7-4.3-1.5-6.6c-2.2,2.3-4.6,4.5-7.3,6.2c-4.4,2.8-9.5,4.5-14.7,4.3
			c-2.4-0.1-4.9-0.5-7-1.7c-1.7-1-3-2.7-3.4-4.7c-1.6,1.3-3.3,2.6-5,3.7c-2,1.2-4.2,2.2-6.6,2.6c-1.9,0.3-3.9,0-5.5-1.1
			c-1.2-0.8-2.2-2.1-2.3-3.6c-1.8,1.4-3.7,2.6-5.8,3.5c-2.1,0.9-4.3,1.5-6.6,1.3c-1.7-0.1-3.4-0.9-4.6-2.1c-1.3-1.2-2-2.9-2.2-4.6
			c-1.4,1.2-2.9,2.4-4.5,3.5c-2.2,1.4-4.6,2.6-7.2,3.1c-2,0.3-4.2,0.2-5.9-1c-1.7-1.1-2.8-3.2-2.4-5.2c0.4-2.6,1.3-5,2.2-7.4
			c2.4-6.4,5.5-12.5,7.1-19.2c-1.5,0-3,0-4.5,0c-1.8,4.2-3.7,8.3-6,12.3c-2.1,3.6-4.3,7.2-6.9,10.5c-1.3,1.7-2.8,3.4-4.3,4.9
			c-1.5,1.5-3.1,2.8-4.9,3.9c-1.6,1-3.6,1.6-5.5,1.4c-1.5-0.1-3-0.4-4.2-1.3c-1-0.7-1.6-1.9-2-3.1c-2.6,2.1-5.7,3.6-9,4.2
			c-0.9,0.1-1.9,0.3-2.8,0.2c-1.9-0.3-3.9-1.1-5.1-2.6c-1-1.2-1.5-2.6-1.7-4.1c-0.4-2.7-0.1-5.5,0.5-8.1c0.9-4.2,2.7-8.3,5-11.9
			c2.3-3.7,5.3-7,8.9-9.5c3.6-2.5,7.8-4.1,12.2-4.3c3.9-0.2,7.8,0.6,11.4,2c-0.7,1.8-1.4,3.6-2,5.3c-2.1-0.8-4.4-1.4-6.7-1.2
			c-2.5,0.1-5,1.1-7,2.6c-3,2.2-5.2,5.3-6.9,8.5c-1.7,3.3-3.1,6.8-4,10.4c-0.4,1.5-0.8,3.1-0.8,4.7c0,0.6,0.1,1.2,0.5,1.7
			c0.3,0.4,0.8,0.5,1.2,0.4c1.3-0.2,2.4-0.9,3.4-1.6c1.5-1.1,2.9-2.3,4-3.8c0.5-0.7,0.8-1.6,1.1-2.5c2.1-5.6,4.1-11.1,6.1-16.7
			c3.5,0,7.1,0,10.6,0c-2.9,7.9-5.9,15.9-8.8,23.8c-0.1,0.4-0.4,0.7-0.3,1.2c0.6-0.1,1.1-0.5,1.6-0.8c2-1.4,3.6-3.3,5.1-5.2
			c2.4-3.2,4.4-6.7,6.3-10.2c1.7-3.4,3.4-6.8,4.8-10.3c0.2-0.4,0.4-0.8,0.5-1.3c-0.1-0.3-0.6-0.2-0.8-0.4c-0.7-0.5-1-1.5-1.1-2.3
			c-0.3-3.1,1.1-6.2,3.3-8.3c0.9-0.7,2-1.3,3.1-1.6c0.9-0.2,2-0.2,2.7,0.3c0.9,0.7,1.3,1.8,1.5,2.9c0.2,1.2,0.1,2.5-0.4,3.6
			c2.6-0.2,5.1,0,7.7,0c1.4,0,3,0.2,4.1,1.2c1,0.8,1.3,2.1,1.2,3.3c-0.1,2-1,3.9-1.7,5.7c-2.8,7.5-5.6,15-8.4,22.5
			c-0.1,0.2,0,0.5,0.1,0.7c0.3,0.2,0.6-0.1,0.8-0.2c2.8-1.8,5.6-3.7,8.3-5.6c0.4-0.3,0.8-0.5,0.9-1c0.4-2.2,1-4.4,1.7-6.5
			c1.5-4.6,3.7-9.1,6.9-12.8c2.6-3,5.8-5.6,9.5-7C216.8,18,221.3,17.8,225.5,18.7z M256.8,23.1c-0.8,0.3-1.5,0.8-2.1,1.4
			c-1.4,1.3-2.5,2.9-3.6,4.5c-1.9,2.9-3.6,5.9-4.8,9c1.9-0.4,3.8-1,5.5-2c2.8-1.5,5.1-3.7,6.5-6.5c0.8-1.6,1.3-3.4,1.2-5.3
			c0-0.6-0.2-1.3-0.8-1.5C258,22.6,257.3,22.8,256.8,23.1z M290.2,22.8c-1.1,0.4-2.1,1-3,1.9c-1.7,1.8-3.1,3.9-4.4,5.9
			c-1.4,2.3-2.7,4.8-3.7,7.3c2.3-0.5,4.5-1.3,6.5-2.6c2.7-1.7,4.9-4.2,6-7.2c0.5-1.2,0.7-2.5,0.7-3.8c0-0.5-0.1-1.1-0.5-1.5
			C291.3,22.6,290.7,22.7,290.2,22.8z M216.3,26.1c-1.8,1.5-3.2,3.4-4.5,5.4c-2.3,3.7-4,7.8-5.4,12c-0.7,2.3-1.4,4.7-1.4,7.1
			c0,0.7,0.1,1.5,0.6,2c0.5,0.4,1.2,0.3,1.7,0.1c1.9-0.7,3.6-1.8,4.9-3.3c1.5-1.6,2.6-3.5,3.5-5.4c1-2,1.8-4.2,2.6-6.3
			c1.8-4.5,3.5-9.1,5.2-13.6c-0.9-0.2-1.8-0.3-2.7-0.1C219.2,24.2,217.6,25,216.3,26.1z M307.2,35.8c-1.4,2-2.8,4-4.3,5.8
			c0.5-0.1,1-0.2,1.5-0.3c2.9-0.3,5.8-0.3,8.7-0.4c0.5-1.6,0.4-3.3,0.5-4.9c0-3.1-0.1-6.1-0.1-9.2C311.4,29.8,309.3,32.8,307.2,35.8
			z M306.5,45.9c-1.7,0.4-3.3,1.4-4.5,2.7c-0.8,0.8-1.1,1.8-1.1,2.9c0,0.7,0.2,1.4,0.8,1.9c0.6,0.6,1.4,0.8,2.2,0.8
			c1.1,0,2.2-0.4,3.2-1c1-0.7,1.9-1.6,2.6-2.6c1-1.5,1.8-3.2,2.3-4.9C310.1,45.5,308.3,45.5,306.5,45.9z"/>
	</g>
	<path class="st1" d="M303.5,5.9c1.7-0.1,3.5-0.2,5.2,0c0.5,0.9,0.4,2,0.3,3.1c-0.2,1.4-0.6,2.8-1.6,3.9c-0.6,0.7-1.3,1.4-2.1,1.8
		c-0.9,0.5-1.9,0.8-2.9,0.5c-0.5-0.1-0.7-0.6-0.6-1.1c0-0.5,0.5-0.7,0.8-1c1-1.1,1.7-2.6,1.7-4.1C304.3,7.8,303.9,6.8,303.5,5.9z"/>
	<g>
		<path class="st1" d="M329.6,11c1.2-0.3,2.6,0.2,3.3,1.2c1,1.3,0.6,3.4-0.7,4.3c-1.1,0.8-2.6,0.8-3.7,0c-1-0.7-1.5-2-1.2-3.1
			C327.4,12.2,328.4,11.2,329.6,11z M329.8,11.6c-1.4,0.3-2.2,1.9-1.7,3.2c0.3,1.2,1.8,2,3,1.5c1.3-0.4,1.9-2,1.4-3.2
			C332.1,12,330.9,11.4,329.8,11.6z"/>
	</g>
	<g>
		<path class="st1" d="M329.1,12.5c0.7-0.1,1.4-0.2,2,0c0.4,0.1,0.6,0.6,0.5,1c-0.1,0.3-0.3,0.4-0.6,0.5c0.6,0.3,0.5,1,0.7,1.6
			c-0.3,0-0.5,0-0.8,0c-0.1-0.3-0.2-0.7-0.3-1c-0.2-0.3-0.6-0.2-0.8-0.2c0,0.4,0,0.8,0,1.2c-0.2,0-0.5,0-0.7,0
			C329.1,14.6,329.1,13.6,329.1,12.5z M329.9,13c-0.1,0.3,0,0.6-0.1,0.9c0.3,0,0.6,0,0.9-0.2c0.2-0.1,0.2-0.4,0-0.6
			C330.5,12.9,330.2,13,329.9,13z"/>
	</g>
	<path class="st1" d="M29.4,32.2c1.1-0.2,2.3,0.1,3.3,0.7c0.5,0.3,1,0.7,1.4,1.1c0.5,0.6,0.1,1.4-0.4,1.8c-0.4,0.3-1,0.2-1.5,0.1
		c-0.7-0.2-1.2-1-2-0.9c-0.7,0.2-1.5,0.4-2.3,0.2c-0.6-0.2-1-0.7-1.1-1.3c0-0.4,0.4-0.8,0.7-1C28.1,32.7,28.7,32.3,29.4,32.2z"/>
	<path class="st1" d="M41.9,36.3c0.8-0.1,1.7-0.1,2.5,0c0.9,0.3,1.9,0.8,2.5,1.6c0.3,0.4,0.6,0.9,0.8,1.3c0.2,0.3,0.3,0.8,0,1.2
		c-0.4,0.4-1,0.6-1.5,0.5c-0.6-0.1-1.1-0.6-1.5-1c-0.2-0.2-0.4-0.5-0.7-0.6c-0.6-0.2-1.2,0.1-1.8-0.2c-0.5-0.2-1.2-0.5-1.2-1.2
		C40.8,37.3,41.1,36.4,41.9,36.3z"/>
	<path class="st1" d="M33.5,39.9c0.7-0.2,1.3,0,2,0.1c1.3,0.2,2.5,0.9,3.2,2c0.2,0.3,0.3,0.7,0.1,1c-0.3,0.3-0.8,0.5-1.2,0.5
		c-1.6-0.1-3.3-0.7-4.4-1.9c-0.3-0.3-0.6-0.6-0.5-1C32.8,40.1,33.2,39.9,33.5,39.9z"/>
	<path class="st1" d="M26.7,39.9c0.4-0.1,0.6,0.5,0.6,0.8c-0.1,0.6-0.7,0.8-0.8,1.4c-0.1,0.3,0.1,0.5,0.2,0.7c1.4,2.8,4,5.1,7,6.1
		c3,1,6.4,0.3,9.1-1.4c0.6-0.3,0.3-1,0.3-1.5c0-0.5,0.6-0.9,1-0.5c0.2,0.2,0.4,0.5,0.5,0.8c0.1,0.4,0.3,0.7,0.5,1.1
		c0.2,0.3,0.5,0.5,0.7,0.8c0.2,0.4-0.2,1-0.7,1c-0.4,0-0.6-0.4-1-0.3c-0.5,0-0.8,0.4-1.2,0.6c-1.6,0.9-3.2,1.8-5,2.4
		c-2.3,0.7-4.9,0.4-7-0.9c-2.8-1.7-4.9-4.5-5.9-7.7c-0.3-0.6-1.2-0.3-1.7-0.7c-0.3-0.3-0.1-0.6,0.1-0.9c0.6-0.3,1.3-0.5,1.9-0.8
		C25.9,40.4,26.2,40,26.7,39.9z"/>
</g>
</svg>
