<?xml version="1.0" encoding="UTF-8" standalone="no"?>
<!-- Created with Inkscape (http://www.inkscape.org/) -->

<svg
   xmlns:dc="http://purl.org/dc/elements/1.1/"
   xmlns:cc="http://creativecommons.org/ns#"
   xmlns:rdf="http://www.w3.org/1999/02/22-rdf-syntax-ns#"
   xmlns:svg="http://www.w3.org/2000/svg"
   xmlns="http://www.w3.org/2000/svg"
   xmlns:sodipodi="http://sodipodi.sourceforge.net/DTD/sodipodi-0.dtd"
   xmlns:inkscape="http://www.inkscape.org/namespaces/inkscape"
   width="518.70547954"
   height="192.787629868"
   viewBox="0 0 99.999994 37.16707"
   version="1.1"
   id="svg8"
   inkscape:version="0.92.3 (2405546, 2018-03-11)"
   sodipodi:docname="Q.svg">
  <defs
     id="defs2" />
  <sodipodi:namedview
     id="base"
     pagecolor="#ffffff"
     bordercolor="#666666"
     borderopacity="1.0"
     inkscape:pageopacity="0.0"
     inkscape:pageshadow="2"
     inkscape:zoom="0.30656934"
     inkscape:cx="739.59298"
     inkscape:cy="-299.2381"
     inkscape:document-units="px"
     inkscape:current-layer="layer1"
     showgrid="false"
     units="px"
     fit-margin-top="0"
     fit-margin-left="0"
     fit-margin-right="0"
     fit-margin-bottom="0" />
  <metadata
     id="metadata5">
    <rdf:RDF>
      <cc:Work
         rdf:about="">
        <dc:format>image/svg+xml</dc:format>
        <dc:type
           rdf:resource="http://purl.org/dc/dcmitype/StillImage" />
        <dc:title></dc:title>
      </cc:Work>
    </rdf:RDF>
  </metadata>
  <g
     inkscape:label="Layer 1"
     inkscape:groupmode="layer"
     id="layer1"
     transform="translate(-30.626417,159.90797)">
    <path
       sodipodi:nodetypes="ccccccccccccccccccccc"
       inkscape:connector-curvature="0"
       id="path54"
       d="m 84.766926,-131.24886 c -4.788921,0 -9.530259,-3.79855 -9.530259,-9.61864 0,-6.15181 4.935292,-9.68002 9.543937,-9.68002 5.12978,0 9.721528,4.01101 9.721528,9.62452 0,4.00709 -2.362724,6.34921 -2.362724,6.34921 0.991549,1.11906 1.885717,1.71503 3.310153,1.71503 0.1158,0 0.196148,0.0818 0.196148,0.19615 v 1.62839 c 0,0.11912 -0.08527,0.17764 -0.177644,0.17764 -4.31705,0 -4.60638,-3.34855 -7.099728,-4.08627 -0.286546,-0.063 -0.383464,-0.3182 -0.04441,-0.50499 0,0 0.615668,-0.41347 1.334633,-0.41347 0.30742,0 0.735433,0.0896 0.735433,0.0896 0,0 2.111786,-1.93088 2.111786,-5.16634 0,-4.09723 -3.554989,-7.63097 -7.55769,-7.63097 -4.576509,0 -7.725174,3.78837 -7.725174,7.59432 0,4.599 3.874939,7.71265 7.667991,7.71265 0.700775,0 1.243394,-0.17024 1.791233,-0.17024 0.748185,0 1.344873,0.56228 1.769138,1.16499 0.143085,0.22961 -0.03899,0.35547 -0.429413,0.46709 0,0 -1.211604,0.55139 -3.254942,0.55139 z"
       style="opacity:1;fill:#283349;fill-opacity:1;fill-rule:evenodd;stroke:none;stroke-width:0.03731633;stroke-linejoin:miter;stroke-miterlimit:4;stroke-dasharray:none" />
    <g
       id="g50"
       transform="matrix(0.48520979,0,0,0.48520979,30.966064,-179.48713)"
       style="stroke:none">
      <path
         style="opacity:1;fill:#f67963;fill-opacity:1;fill-rule:evenodd;stroke:none;stroke-width:0.25;stroke-linejoin:miter;stroke-miterlimit:4;stroke-dasharray:none"
         d="m -1,403.51953 c -3.3239968,0 -6,2.676 -6,6 v 753.99997 c 0,3.324 2.6760032,6 6,6 h 754 c 3.324,0 6,-2.676 6,-6 V 409.51953 c 0,-3.324 -2.676,-6 -6,-6 z m 28,34 H 725 V 1135.5195 H 27 Z"
         transform="scale(0.1)"
         id="path46"
         inkscape:connector-curvature="0" />
      <path
         style="opacity:1;fill:#283349;fill-opacity:1;fill-rule:evenodd;stroke:none;stroke-width:0.025;stroke-linejoin:miter;stroke-miterlimit:4;stroke-dasharray:none"
         d="m 37.634316,97.451402 c -10.433631,0 -19.287755,-8.633029 -19.287755,-19.287755 0,-9.82124 7.801663,-19.216151 19.361389,-19.216151 10.221262,0 19.149821,8.2407 19.149821,19.262205 0,7.707347 -4.598212,12.397186 -4.598212,12.397186 1.505708,1.641544 3.075818,3.145078 5.940441,3.145078 0.280778,0 0.5,0.130889 0.5,0.5 v 3.6 c 0,0.343687 -0.218792,0.5 -0.5,0.5 -4.62665,0 -7.411203,-2.539515 -9.932475,-5.598852 -1.255563,-1.30067 -3.010014,-2.748602 -4.421684,-3.068714 -0.782531,-0.181042 -0.865476,-0.60685 -0.421499,-1.021516 0.834418,-0.869522 1.933434,-1.309127 3.317447,-1.309127 l 1.829802,0.322323 c 1.565778,-1.793184 3.60732,-5.008524 3.60732,-9.453838 0,-7.826562 -6.223573,-14.57966 -14.548102,-14.57966 -7.925199,0 -14.614723,6.392581 -14.614723,14.586673 0,7.132144 5.774623,14.556884 14.903971,14.556884 0.594685,0.0051 1.649855,-0.148765 2.233946,-0.148765 1.853422,0 3.124563,0.910231 4.410866,2.660404 0.286028,0.344361 0.361033,0.754477 -0.384704,0.983941 -1.361802,0.473825 -3.917839,1.169684 -6.545849,1.169684 z"
         id="path48"
         inkscape:connector-curvature="0"
         sodipodi:nodetypes="cccccccccccccccccccccc" />
    </g>
    <path
       style="opacity:1;fill:#283349;fill-opacity:1;fill-rule:evenodd;stroke:none;stroke-width:0.03731633;stroke-linejoin:miter;stroke-miterlimit:4;stroke-dasharray:none"
       d="m 104.30305,-131.54137 c 0.14715,0.32108 0.27857,0.23918 0.40832,-0.003 l 8.72294,-18.57833 c 0.073,-0.15502 -0.0179,-0.23158 -0.11489,-0.23158 h -1.94045 c -0.12864,0 -0.17562,0.0961 -0.29483,0.35897 l -6.58109,14.02695 -6.628281,-14.1022 c -0.09692,-0.2231 -0.146937,-0.28372 -0.268923,-0.28372 h -1.89974 c -0.189488,0 -0.222808,0.0975 -0.152966,0.22081 z"
       id="path56"
       inkscape:connector-curvature="0"
       sodipodi:nodetypes="cccccccccccc" />
    <path
       style="opacity:1;fill:#283349;fill-opacity:1;fill-rule:evenodd;stroke:none;stroke-width:0.03731633;stroke-linejoin:miter;stroke-miterlimit:4;stroke-dasharray:none"
       d="m 124.17962,-131.25626 c -5.24756,0 -9.66024,-4.08616 -9.66024,-9.7447 0,-5.37467 4.36687,-9.56225 9.60151,-9.56225 3.88324,0 6.29372,2.29242 6.29372,2.29242 0.21758,0.20734 0.30973,0.35225 0.0703,0.60258 l -0.89559,0.89559 c -0.21325,0.21402 -0.35568,0.16848 -0.49837,0.0246 0,0 -1.87925,-1.81371 -4.97057,-1.81371 -4.05212,0 -7.58683,3.46763 -7.58683,7.62755 0,4.43057 3.69539,7.63739 7.63443,7.63739 2.20913,0 3.47582,-0.79042 4.74973,-1.64867 0.24665,-0.16794 0.36225,-0.21158 0.52235,-0.0352 l 0.90218,0.99639 c 0.18437,0.19374 0.16932,0.38414 -0.02,0.5174 -1.2748,0.95894 -3.39717,2.21067 -6.14266,2.21067 z"
       id="path63"
       inkscape:connector-curvature="0"
       sodipodi:nodetypes="ccccccccccccccc" />
  </g>
</svg>
